<svg xmlns="http://www.w3.org/2000/svg" width="22.5" height="11.25" viewBox="0 0 22.5 11.25">
  <path id="Path_6314" data-name="Path 6314" d="M21.656-12.375H.844A.844.844,0,0,0,0-11.531v9.563a.844.844,0,0,0,.844.844H21.656a.844.844,0,0,0,.844-.844v-9.562A.844.844,0,0,0,21.656-12.375ZM10.688-2.25H1.125v-9h9.563Zm10.688,0H11.813v-9h9.563ZM3.2-3.375h.364a.45.45,0,0,0,.4-.29l.475-1.44H6.809l.475,1.44a.45.45,0,0,0,.4.29h.363a.422.422,0,0,0,.4-.562L6.366-9.843a.452.452,0,0,0-.4-.282H5.282a.452.452,0,0,0-.4.282L2.8-3.937A.422.422,0,0,0,3.2-3.375ZM5.335-7.91c.133-.38.285-1.046.285-1.046h.019s.143.665.266,1.046L6.5-6.1H4.736ZM13.5-8.3a.422.422,0,0,0,.422.422h4.165a6.458,6.458,0,0,1-1.179,1.829,9.35,9.35,0,0,1-.762-.983.421.421,0,0,0-.566-.126l-.241.144a.422.422,0,0,0-.134.6,10.877,10.877,0,0,0,.9,1.161,9.233,9.233,0,0,1-1.133.852.423.423,0,0,0-.143.567l.14.244a.421.421,0,0,0,.59.148A10.3,10.3,0,0,0,16.9-4.448a9.668,9.668,0,0,0,1.285,1,.423.423,0,0,0,.6-.144l.14-.245a.421.421,0,0,0-.135-.562A8.779,8.779,0,0,1,17.7-5.244a7.239,7.239,0,0,0,1.578-2.631h.552A.422.422,0,0,0,20.25-8.3v-.281A.422.422,0,0,0,19.828-9H17.438v-.7a.422.422,0,0,0-.422-.422h-.281a.422.422,0,0,0-.422.422V-9H13.922a.422.422,0,0,0-.422.422Z" transform="translate(0 12.375)" fill="#fff"/>
</svg>
