<svg xmlns="http://www.w3.org/2000/svg" width="18.002" height="15.75" viewBox="0 0 18.002 15.75">
  <path id="Path_6312" data-name="Path 6312" d="M9-13.5c4.342,0,7.875,2.777,7.875,6.188S13.342-1.125,9-1.125a9.7,9.7,0,0,1-2.925-.45l-.534-.169-.457.323A7.586,7.586,0,0,1,1.477-.028,9.485,9.485,0,0,0,2.911-2.475l.25-.657-.482-.513A5.314,5.314,0,0,1,1.125-7.312C1.125-10.723,4.658-13.5,9-13.5Zm0-1.125c-4.971,0-9,3.273-9,7.313a6.463,6.463,0,0,0,1.86,4.44A8.922,8.922,0,0,1,.229-.3.844.844,0,0,0,.84,1.125,8.53,8.53,0,0,0,5.73-.5,10.9,10.9,0,0,0,9,0c4.971,0,9-3.273,9-7.312S13.971-14.625,9-14.625Z" transform="translate(0.002 14.625)" fill="#fff"/>
</svg>
