<svg xmlns="http://www.w3.org/2000/svg" width="17.998" height="15.75" viewBox="0 0 17.998 15.75">
  <path id="Path_6309" data-name="Path 6309" d="M19.02-7.694,16.875-9.445v-2.721a.211.211,0,0,0-.211-.211h-.7a.211.211,0,0,0-.211.211v1.8l-4.915-4.012a1.315,1.315,0,0,0-.71-.251,1.315,1.315,0,0,0-.71.251L1.23-7.694a.319.319,0,0,0-.1.218A.327.327,0,0,0,1.19-7.3l.355.436a.319.319,0,0,0,.218.1.327.327,0,0,0,.176-.062L3.375-7.994V.549a.563.563,0,0,0,.563.563h4.5A.563.563,0,0,0,9,.549v-4.5l2.25.011v4.5a.563.563,0,0,0,.563.563l4.5-.012a.563.563,0,0,0,.563-.563V-7.994L18.311-6.82a.327.327,0,0,0,.177.063.319.319,0,0,0,.218-.1l.355-.436a.327.327,0,0,0,.063-.177A.318.318,0,0,0,19.02-7.694ZM15.746-.009h0L12.375,0V-4.5a.566.566,0,0,0-.561-.562L8.439-5.076h0a.563.563,0,0,0-.562.563h0v4.5H4.5v-8.9l5.625-4.59,5.625,4.59Z" transform="translate(-1.127 14.625)" fill="#fff"/>
</svg>
