<svg xmlns="http://www.w3.org/2000/svg" width="15.75" height="18" viewBox="0 0 15.75 18">
  <path id="Path_6310" data-name="Path 6310" d="M7.875,1.125A1.127,1.127,0,0,1,6.75,0H5.625A2.253,2.253,0,0,0,7.875,2.25,2.253,2.253,0,0,0,10.125,0H9A1.127,1.127,0,0,1,7.875,1.125Zm7.361-5.1C14.253-4.915,13.5-5.895,13.5-9.214a5.485,5.485,0,0,0-5.064-5.356v-.617a.562.562,0,0,0-.562-.562.562.562,0,0,0-.562.563v.617A5.485,5.485,0,0,0,2.249-9.214c0,3.319-.752,4.3-1.735,5.235a1.636,1.636,0,0,0-.4,1.8A1.678,1.678,0,0,0,1.688-1.125H14.063a1.678,1.678,0,0,0,1.569-1.054A1.636,1.636,0,0,0,15.236-3.979ZM14.063-2.25H1.688a.534.534,0,0,1-.4-.914c1.226-1.167,2.084-2.473,2.084-6.05a4.4,4.4,0,0,1,4.5-4.286,4.4,4.4,0,0,1,4.5,4.286c0,3.563.851,4.876,2.084,6.05A.534.534,0,0,1,14.063-2.25Z" transform="translate(0 15.75)" fill="#fff"/>
</svg>
