<svg xmlns="http://www.w3.org/2000/svg" width="13.5" height="18" viewBox="0 0 13.5 18">
  <path id="Path_6313" data-name="Path 6313" d="M11.813-13.5H8.7a1.861,1.861,0,0,0,.021-.281A1.97,1.97,0,0,0,6.75-15.75a1.97,1.97,0,0,0-1.969,1.969A1.861,1.861,0,0,0,4.8-13.5H1.688A1.688,1.688,0,0,0,0-11.812V.563A1.688,1.688,0,0,0,1.688,2.25H11.813A1.688,1.688,0,0,0,13.5.563V-11.812A1.688,1.688,0,0,0,11.813-13.5ZM6.75-14.625a.842.842,0,0,1,.844.844.842.842,0,0,1-.844.844.842.842,0,0,1-.844-.844A.842.842,0,0,1,6.75-14.625ZM12.375.563a.564.564,0,0,1-.562.563H1.688A.564.564,0,0,1,1.125.563V-11.812a.564.564,0,0,1,.563-.562H3.375v.7a.423.423,0,0,0,.422.422H9.7a.423.423,0,0,0,.422-.422v-.7h1.688a.564.564,0,0,1,.563.563Z" transform="translate(0 15.75)" fill="#fff"/>
</svg>
