<svg xmlns="http://www.w3.org/2000/svg" width="14.875" height="17" viewBox="0 0 14.875 17">
  <path id="Path_6311" data-name="Path 6311" d="M10.412-5.312c-.953,0-1.411.531-2.975.531s-2.019-.531-2.975-.531A4.464,4.464,0,0,0,0-.85V.531A1.594,1.594,0,0,0,1.594,2.125H13.281A1.594,1.594,0,0,0,14.875.531V-.85A4.464,4.464,0,0,0,10.412-5.312Zm3.4,5.844a.533.533,0,0,1-.531.531H1.594A.533.533,0,0,1,1.063.531V-.85a3.4,3.4,0,0,1,3.4-3.4,15.857,15.857,0,0,0,2.975.531,15.914,15.914,0,0,0,2.975-.531,3.4,3.4,0,0,1,3.4,3.4ZM7.438-6.375a4.25,4.25,0,0,0,4.25-4.25,4.25,4.25,0,0,0-4.25-4.25,4.25,4.25,0,0,0-4.25,4.25A4.25,4.25,0,0,0,7.438-6.375Zm0-7.437a3.193,3.193,0,0,1,3.188,3.188A3.193,3.193,0,0,1,7.438-7.437,3.193,3.193,0,0,1,4.25-10.625,3.193,3.193,0,0,1,7.438-13.812Z" transform="translate(0 14.875)" fill="#fff"/>
</svg>
