<svg xmlns="http://www.w3.org/2000/svg" width="14.875" height="17" viewBox="0 0 14.875 17">
  <path id="Path_6308" data-name="Path 6308" d="M13.281-7.437H12.75V-9.513a5.346,5.346,0,0,0-5.3-5.362A5.317,5.317,0,0,0,2.125-9.562v2.125H1.594A1.594,1.594,0,0,0,0-5.844V.531A1.594,1.594,0,0,0,1.594,2.125H13.281A1.594,1.594,0,0,0,14.875.531V-5.844A1.594,1.594,0,0,0,13.281-7.437ZM3.188-9.562a4.254,4.254,0,0,1,4.25-4.25,4.254,4.254,0,0,1,4.25,4.25v2.125h-8.5ZM13.281,1.063H1.594A.533.533,0,0,1,1.063.531V-5.844a.533.533,0,0,1,.531-.531H13.281a.533.533,0,0,1,.531.531V.531A.533.533,0,0,1,13.281,1.063Z" transform="translate(0 14.875)" fill="#fff"/>
</svg>
