<svg xmlns="http://www.w3.org/2000/svg" width="29.761" height="23.146" viewBox="0 0 29.761 23.146">
  <path id="Path_6021" data-name="Path 6021" d="M-1.558-23.639a13.144,13.144,0,0,1-1.958-2.836,7.113,7.113,0,0,0,2.273-5.072c0-4.132-3.952-7.547-9.1-8.156-1.622-2.975-5.449-5.067-9.907-5.067-5.935,0-10.744,3.7-10.744,8.265a7.131,7.131,0,0,0,2.273,5.072A13.521,13.521,0,0,1-30.67-28.6a1.19,1.19,0,0,0-.227,1.291,1.19,1.19,0,0,0,1.1.723,11.873,11.873,0,0,0,6.467-2,12.985,12.985,0,0,0,1.446.248c1.627,2.97,5.449,5.062,9.907,5.062a13.672,13.672,0,0,0,3.089-.351,11.9,11.9,0,0,0,6.467,2,1.2,1.2,0,0,0,1.1-.723A1.2,1.2,0,0,0-1.558-23.639ZM-22.968-30.2l-.682-.155-.589.382a10.638,10.638,0,0,1-4.53,1.679,14.369,14.369,0,0,0,1.524-2.4l.537-1.074-.852-.842a5.516,5.516,0,0,1-1.782-3.895c0-3.647,4.081-6.612,9.091-6.612s9.091,2.965,9.091,6.612-4.081,6.612-9.091,6.612A12.01,12.01,0,0,1-22.968-30.2ZM-8-25.018l-.589-.382-.682.16a12.01,12.01,0,0,1-2.717.31,10.061,10.061,0,0,1-7.872-3.321c5.749-.165,10.351-3.791,10.351-8.254a6.571,6.571,0,0,0-.17-1.431c3.895.749,6.782,3.327,6.782,6.39a5.516,5.516,0,0,1-1.782,3.895l-.852.842L-5-25.741a14.61,14.61,0,0,0,1.524,2.4A10.641,10.641,0,0,1-8-25.018Z" transform="translate(30.996 44.77)" fill="#ceb07c"/>
</svg>
