<svg xmlns="http://www.w3.org/2000/svg" width="27.525" height="24.087" viewBox="0 0 27.525 24.087">
  <path id="Path_6022" data-name="Path 6022" d="M17.366-5.65l-3.28-2.679V-12.49a.323.323,0,0,0-.323-.323H12.689a.323.323,0,0,0-.323.323v2.76L4.849-15.866a2.012,2.012,0,0,0-1.086-.383,2.012,2.012,0,0,0-1.086.383L-9.839-5.65A.487.487,0,0,0-10-5.316a.5.5,0,0,0,.1.271l.543.667a.487.487,0,0,0,.333.158.5.5,0,0,0,.269-.094l2.2-1.795V6.956a.861.861,0,0,0,.86.86H1.183a.861.861,0,0,0,.86-.86V.074L5.484.09V6.977a.861.861,0,0,0,.86.86l6.882-.018a.861.861,0,0,0,.86-.86V-6.109l2.2,1.795a.5.5,0,0,0,.271.1.487.487,0,0,0,.334-.159l.543-.667a.5.5,0,0,0,.1-.271A.487.487,0,0,0,17.366-5.65ZM12.36,6.1h.005L7.2,6.119V-.772a.865.865,0,0,0-.858-.86L1.185-1.647h0a.861.861,0,0,0-.86.86h0V6.1H-4.839V-7.513l8.6-7.02,8.6,7.02Z" transform="translate(9.998 16.25)" fill="#ceb07c"/>
</svg>
