<svg xmlns="http://www.w3.org/2000/svg" width="26.899" height="28.963" viewBox="0 0 26.899 28.963">
  <path id="Path_6020" data-name="Path 6020" d="M1.788,5.081A1.508,1.508,0,0,1,.283,3.574H-1.223a3.011,3.011,0,1,0,6.022,0H3.293A1.508,1.508,0,0,1,1.788,5.081Zm9.85-6.83C10.323-3,9.317-4.312,9.317-8.754a7.34,7.34,0,0,0-6.776-7.167v-.826a.753.753,0,0,0-.753-.753.753.753,0,0,0-.753.753v.826A7.34,7.34,0,0,0-5.741-8.754c0,4.442-1.006,5.753-2.322,7.005A2.19,2.19,0,0,0-8.592.661a2.245,2.245,0,0,0,2.1,1.409h16.56a2.245,2.245,0,0,0,2.1-1.41A2.189,2.189,0,0,0,11.638-1.749ZM10.068.565H-6.492A.714.714,0,0,1-7.024-.659c1.64-1.561,2.789-3.309,2.789-8.1a5.881,5.881,0,0,1,6.024-5.735A5.881,5.881,0,0,1,7.812-8.754c0,4.768,1.139,6.525,2.789,8.1A.714.714,0,0,1,10.068.565Z" transform="matrix(0.961, -0.276, 0.276, 0.961, 13.235, 20.22)" fill="#ceb07c"/>
</svg>
