<svg xmlns="http://www.w3.org/2000/svg" width="21.076" height="24.087" viewBox="0 0 21.076 24.087">
  <path id="Path_6019" data-name="Path 6019" d="M6-3.951c-1.35,0-2,.753-4.215.753s-2.86-.753-4.215-.753A6.324,6.324,0,0,0-8.75,2.372V4.329A2.259,2.259,0,0,0-6.492,6.587h16.56a2.259,2.259,0,0,0,2.258-2.258V2.372A6.324,6.324,0,0,0,6-3.951Zm4.817,8.28a.755.755,0,0,1-.753.753H-6.492a.755.755,0,0,1-.753-.753V2.372A4.821,4.821,0,0,1-2.427-2.446c.922,0,1.839.753,4.215.753S5.081-2.446,6-2.446A4.821,4.821,0,0,1,10.82,2.372ZM1.788-5.457A6.021,6.021,0,0,0,7.81-11.478,6.021,6.021,0,0,0,1.788-17.5a6.021,6.021,0,0,0-6.022,6.022A6.021,6.021,0,0,0,1.788-5.457Zm0-10.538A4.523,4.523,0,0,1,6.3-11.478,4.523,4.523,0,0,1,1.788-6.962a4.523,4.523,0,0,1-4.516-4.516A4.523,4.523,0,0,1,1.788-15.995Z" transform="translate(8.75 17.5)" fill="#ceb07c"/>
</svg>
