<svg xmlns="http://www.w3.org/2000/svg" width="37.217" height="28.946" viewBox="0 0 37.217 28.946">
  <path id="Path_6024" data-name="Path 6024" d="M27.457-8.125H-1.49A4.139,4.139,0,0,0-5.625-3.99V16.686A4.139,4.139,0,0,0-1.49,20.821H27.457a4.139,4.139,0,0,0,4.135-4.135V-3.99A4.139,4.139,0,0,0,27.457-8.125Zm2.068,24.811a2.074,2.074,0,0,1-2.068,2.068H-1.49a2.074,2.074,0,0,1-2.068-2.068V-3.99A2.074,2.074,0,0,1-1.49-6.057H27.457A2.074,2.074,0,0,1,29.524-3.99Zm-4.652-8.27H17.635a.518.518,0,0,0-.517.517V9.966a.518.518,0,0,0,.517.517h7.237a.518.518,0,0,0,.517-.517V8.933A.518.518,0,0,0,24.872,8.416Zm0-4.135H17.635a.518.518,0,0,0-.517.517V5.831a.518.518,0,0,0,.517.517h7.237a.518.518,0,0,0,.517-.517V4.8A.518.518,0,0,0,24.872,4.281Zm0-4.135H17.635a.518.518,0,0,0-.517.517V1.7a.518.518,0,0,0,.517.517h7.237a.518.518,0,0,0,.517-.517V.662A.518.518,0,0,0,24.872.145ZM7.814,8.416A5.169,5.169,0,1,0,2.645,3.247,5.168,5.168,0,0,0,7.814,8.416Zm0-8.27a3.1,3.1,0,1,1-3.1,3.1A3.1,3.1,0,0,1,7.814.145Zm3.024,9.3c-1.26,0-1.577.452-3.024.452S6.05,9.45,4.791,9.45a4.129,4.129,0,0,0-3.476,1.77,4.324,4.324,0,0,0-.737,2.423v1.493a.518.518,0,0,0,.517.517H2.128a.518.518,0,0,0,.517-.517V13.643a2.267,2.267,0,0,1,.388-1.266A2.091,2.091,0,0,1,4.8,11.524a22.91,22.91,0,0,0,3.024.452,23.283,23.283,0,0,0,3.024-.452,2.108,2.108,0,0,1,1.764.853A2.268,2.268,0,0,1,13,13.643v1.493a.518.518,0,0,0,.517.517h1.034a.518.518,0,0,0,.517-.517V13.643a4.324,4.324,0,0,0-.737-2.423A4.185,4.185,0,0,0,10.838,9.45Z" transform="translate(5.625 8.125)" fill="#ceb07c"/>
</svg>
