<svg xmlns="http://www.w3.org/2000/svg" width="33.766" height="38.589" viewBox="0 0 33.766 38.589">
  <path id="Path_10" data-name="Path 10" d="M4.29,13.812,3.7,17.3a2.1,2.1,0,0,0,.844,2.065,2.145,2.145,0,0,0,1.236.407,2.079,2.079,0,0,0,.98-.249l3.128-1.643,3.128,1.643A2.113,2.113,0,0,0,16.078,17.3l-.6-3.49,2.525-2.465a2.106,2.106,0,0,0-1.168-3.6l-3.5-.512-1.56-3.173a2.12,2.12,0,0,0-1.9-1.183A2.087,2.087,0,0,0,8,4.059L6.438,7.232l-3.5.512a2.106,2.106,0,0,0-1.168,3.6ZM8.029,9.433,9.883,5.672l1.854,3.761,4.145.6-3,2.932.709,4.13L9.883,15.153,6.175,17.105l.709-4.13-3-2.932ZM23.148-9.176H19.53V-13.4a.6.6,0,0,0-.6-.6H17.721a.6.6,0,0,0-.6.6v4.221H2.647V-13.4a.6.6,0,0,0-.6-.6H.838a.6.6,0,0,0-.6.6v4.221H-3.382A3.619,3.619,0,0,0-7-5.559v26.53a3.619,3.619,0,0,0,3.618,3.618h26.53a3.619,3.619,0,0,0,3.618-3.618V-5.559A3.619,3.619,0,0,0,23.148-9.176Zm1.206,30.148a1.209,1.209,0,0,1-1.206,1.206H-3.382a1.209,1.209,0,0,1-1.206-1.206V.471H24.354Zm0-22.912H-4.588V-5.559A1.209,1.209,0,0,1-3.382-6.764h26.53a1.209,1.209,0,0,1,1.206,1.206Z" transform="translate(7 14)" fill="#ceb07c"/>
</svg>
