<svg xmlns="http://www.w3.org/2000/svg" width="33.28" height="35.36" viewBox="0 0 33.28 35.36">
  <g id="Group_783" data-name="Group 783" transform="translate(-169.625 -610.015)">
    <path id="Path_6376" data-name="Path 6376" d="M-18.57-33.3a.805.805,0,0,0-.805.805v9.662a.805.805,0,0,0,.805.805h9.662a.805.805,0,0,0,.805-.805v-.671a.805.805,0,0,0-.805-.805H-15.5A14.354,14.354,0,0,1-2.735-32.094,14.357,14.357,0,0,1,11.623-17.735,14.357,14.357,0,0,1-2.735-3.377a14.3,14.3,0,0,1-9.6-3.681.8.8,0,0,0-1.106.03l-.474.474a.807.807,0,0,0,.032,1.17A16.579,16.579,0,0,0-2.735-1.1,16.64,16.64,0,0,0,13.9-17.709,16.676,16.676,0,0,0-2.682-34.375a16.631,16.631,0,0,0-14.412,8.228V-32.5A.805.805,0,0,0-17.9-33.3ZM3.012-12.15l.316-.434a.805.805,0,0,0-.178-1.125l-4.811-3.5v-9.92a.805.805,0,0,0-.805-.805H-3a.805.805,0,0,0-.805.805v11.014l5.7,4.142A.805.805,0,0,0,3.012-12.15Z" transform="translate(189 646.47)" fill="#ceb07c"/>
    <g id="Group_783-2" data-name="Group 783" transform="translate(172 607.015)">
      <ellipse id="Ellipse_17" data-name="Ellipse 17" cx="1.186" cy="1.186" rx="1.186" ry="1.186" transform="translate(2 3.256)" fill="#231e1e" opacity="0.08"/>
      <path id="Path_6375" data-name="Path 6375" d="M1.186,0A1.186,1.186,0,1,1,0,1.186,1.186,1.186,0,0,1,1.186,0Z" transform="translate(-1 22.609)" fill="#231e1e" opacity="0.08"/>
      <ellipse id="Ellipse_18" data-name="Ellipse 18" cx="1.778" cy="1.778" rx="1.778" ry="1.778" transform="translate(25.75 3)" fill="#231e1e" opacity="0.08"/>
    </g>
  </g>
</svg>
