<svg xmlns="http://www.w3.org/2000/svg" width="30.42" height="34.766" viewBox="0 0 30.42 34.766">
  <path id="Path_17" data-name="Path 17" d="M8.662-1.484A.815.815,0,0,0,7.847-2.3H5.131a.815.815,0,0,0-.815.815V1.232a.815.815,0,0,0,.815.815H7.847a.815.815,0,0,0,.815-.815ZM16.539-2.3H13.823a.815.815,0,0,0-.815.815V1.232a.815.815,0,0,0,.815.815h2.716a.815.815,0,0,0,.815-.815V-1.484A.815.815,0,0,0,16.539-2.3ZM7.847,4.219H5.131a.815.815,0,0,0-.815.815V7.75a.815.815,0,0,0,.815.815H7.847a.815.815,0,0,0,.815-.815V5.034A.815.815,0,0,0,7.847,4.219Zm8.692,0H13.823a.815.815,0,0,0-.815.815V7.75a.815.815,0,0,0,.815.815h2.716a.815.815,0,0,0,.815-.815V5.034A.815.815,0,0,0,16.539,4.219ZM7.847,10.738H5.131a.815.815,0,0,0-.815.815v2.716a.815.815,0,0,0,.815.815H7.847a.815.815,0,0,0,.815-.815V11.553A.815.815,0,0,0,7.847,10.738Zm8.692,0H13.823a.815.815,0,0,0-.815.815v2.716a.815.815,0,0,0,.815.815h2.716a.815.815,0,0,0,.815-.815V11.553A.815.815,0,0,0,16.539,10.738Zm9.506,13.92a.815.815,0,0,0-.815-.815H23.872V-7.12a1.63,1.63,0,0,0-1.63-1.63H-.572A1.63,1.63,0,0,0-2.2-7.12V23.843H-3.56a.815.815,0,0,0-.815.815v1.358h30.42ZM21.7,23.843H13.008V18.071a.815.815,0,0,0-.815-.815H9.477a.815.815,0,0,0-.815.815v5.772H-.029V-6.577H21.7Z" transform="translate(4.375 8.75)" fill="#ceb07c"/>
</svg>
