<svg xmlns="http://www.w3.org/2000/svg" width="47.402" height="28.451" viewBox="0 0 47.402 28.451">
  <path id="Path_14" data-name="Path 14" d="M-8.815,6.947A1.188,1.188,0,0,0-7.63,5.762,1.188,1.188,0,0,0-8.815,4.578,1.188,1.188,0,0,0-10,5.762,1.184,1.184,0,0,0-8.815,6.947ZM36.8-7.256,28.4-7.241l-3.792-3.7a3.524,3.524,0,0,0-2.51-1.044H14.616a3.519,3.519,0,0,0-2.1.741A3.565,3.565,0,0,0,10.35-12H5.2a3.555,3.555,0,0,0-2.51,1.044l-3.7,3.7h-8.4A.594.594,0,0,0-10-6.664v1.185a.594.594,0,0,0,.592.592h4.147V9.324H-9.408A.594.594,0,0,0-10,9.917V11.1a.594.594,0,0,0,.592.592h4.147A2.361,2.361,0,0,0-2.9,9.347H-.44L5.6,15.123a5.941,5.941,0,0,0,7.479-.015l.533.459A3.95,3.95,0,0,0,19.155,15L20.777,13a3.556,3.556,0,0,0,4.443-.889l.7-.866a3.551,3.551,0,0,0,.778-1.9h3.6a2.366,2.366,0,0,0,2.362,2.348H36.81A.594.594,0,0,0,37.4,11.1V9.917a.594.594,0,0,0-.592-.592H32.663v-14.2l4.147-.015a.594.594,0,0,0,.592-.592V-6.664A.6.6,0,0,0,36.8-7.256Zm-12.722,17-.7.866a1.183,1.183,0,0,1-1.666.17L20.392,9.717l-3.073,3.777a1.566,1.566,0,0,1-2.177.252l-2.266-1.933-.77.948a3.556,3.556,0,0,1-4.932.585L.516,6.969H-2.891V-4.894H-.032L4.359-9.285A1.189,1.189,0,0,1,5.2-9.633h5.147c.067.163.022.052.081.215L6.055-5.4a5.075,5.075,0,0,0-.311,7.176,5.119,5.119,0,0,0,7.176.311L14.608.534l9.3,7.546A1.193,1.193,0,0,1,24.08,9.746Zm6.206-2.777H26.05a3.756,3.756,0,0,0-.652-.726L16.371-1.088l2.1-1.933a1.184,1.184,0,0,0,.074-1.674,1.19,1.19,0,0,0-1.674-.074L11.313.327A2.8,2.8,0,0,1,7.484.164a2.714,2.714,0,0,1,.163-3.829L13.8-9.308a1.191,1.191,0,0,1,.8-.311H22.08a1.182,1.182,0,0,1,.844.356l4.5,4.377h2.866ZM36.21,4.585A1.185,1.185,0,1,0,37.395,5.77,1.188,1.188,0,0,0,36.21,4.585Z" transform="translate(10 12.003)" fill="#ceb07c"/>
</svg>
