<svg xmlns="http://www.w3.org/2000/svg" width="35.049" height="35.049" viewBox="0 0 35.049 35.049">
  <path id="Path_20" data-name="Path 20" d="M12.681-8.594A17.524,17.524,0,1,0,30.205,8.931,17.521,17.521,0,0,0,12.681-8.594ZM26.333,2.147H20.5A20.564,20.564,0,0,0,17.45-5.562,15.33,15.33,0,0,1,26.333,2.147ZM18.9,8.931a33.4,33.4,0,0,1-.3,4.522H6.766a33.809,33.809,0,0,1,0-9.045H18.6A33.4,33.4,0,0,1,18.9,8.931ZM12.681-6.333c1.9,0,4.339,3.116,5.519,8.48H7.162C8.342-3.216,10.78-6.333,12.681-6.333Zm-4.77.77A20.584,20.584,0,0,0,4.858,2.147H-.971A15.33,15.33,0,0,1,7.911-5.562ZM-2.583,8.931A15.167,15.167,0,0,1-1.9,4.408H4.5a35.827,35.827,0,0,0-.3,4.522,34.56,34.56,0,0,0,.3,4.522H-1.9A15.167,15.167,0,0,1-2.583,8.931Zm1.611,6.784h5.83a20.564,20.564,0,0,0,3.053,7.709A15.33,15.33,0,0,1-.971,15.714Zm13.652,8.48c-1.9,0-4.339-3.116-5.519-8.48H18.2C17.019,21.078,14.581,24.194,12.681,24.194Zm4.77-.77A20.584,20.584,0,0,0,20.5,15.714h5.83A15.33,15.33,0,0,1,17.45,23.424Zm3.413-9.97a35.826,35.826,0,0,0,.3-4.522,34.56,34.56,0,0,0-.3-4.522h6.395a15.262,15.262,0,0,1,0,9.045Z" transform="translate(4.844 8.594)" fill="#ceb07c"/>
</svg>
