<svg id="Group_611" data-name="Group 611" xmlns="http://www.w3.org/2000/svg" width="34.194" height="39.501" viewBox="0 0 34.194 39.501">
  <ellipse id="Ellipse_8" data-name="Ellipse 8" cx="1.311" cy="1.311" rx="1.311" ry="1.311" transform="translate(0.352 15.76)" fill="#231e1e" opacity="0.08"/>
  <ellipse id="Ellipse_10" data-name="Ellipse 10" cx="1.311" cy="1.311" rx="1.311" ry="1.311" transform="translate(30.495 13.138)" fill="#231e1e" opacity="0.08"/>
  <ellipse id="Ellipse_9" data-name="Ellipse 9" cx="1.966" cy="1.966" rx="1.966" ry="1.966" fill="#231e1e" opacity="0.08"/>
  <path id="Path_13" data-name="Path 13" d="M.128-6.872c1.318,0,2.376-1,2.376-2.97S1.019-14,.128-14c0,3.044-2.376,2.45-2.376,4.752A2.369,2.369,0,0,0,.128-6.872Zm9.5,0c1.318,0,2.376-1,2.376-2.97S10.523-14,9.632-14c0,3.044-2.376,2.45-2.376,4.752A2.369,2.369,0,0,0,9.632-6.872Zm9.5,0c1.318,0,2.376-1,2.376-2.97S20.026-14,19.135-14c0,3.044-2.376,2.45-2.376,4.752A2.369,2.369,0,0,0,19.135-6.872ZM22.7,5.008H20.323V-5.684H17.947V5.008H10.82V-5.684H8.444V5.008H1.316V-5.684H-1.06V5.008H-3.436A3.565,3.565,0,0,0-7,8.571V24.015H26.263V8.571A3.565,3.565,0,0,0,22.7,5.008Zm1.188,16.632H-4.624V16.29c1.2-.7,1.777-1.779,3.174-1.779,2.075,0,2.32,2.376,5.55,2.376,3.181,0,3.506-2.376,5.532-2.376,2.09,0,2.317,2.376,5.55,2.376s3.472-2.376,5.55-2.376c1.373,0,1.949,1.075,3.156,1.779Zm0-8.344a4.529,4.529,0,0,0-3.156-1.16c-3.225,0-3.477,2.376-5.55,2.376-2.056,0-2.335-2.376-5.55-2.376-3.181,0-3.506,2.376-5.532,2.376-2.09,0-2.317-2.376-5.55-2.376A4.554,4.554,0,0,0-4.624,13.3V8.571A1.189,1.189,0,0,1-3.436,7.383H22.7a1.189,1.189,0,0,1,1.188,1.188Z" transform="translate(7.93 15.486)" fill="#ceb07c"/>
</svg>
