<svg xmlns="http://www.w3.org/2000/svg" width="53.001" height="51.356" viewBox="0 0 53.001 51.356">
  <path id="Path_9" data-name="Path 9" d="M32.475,13.5H24.85L22.484,8.987a.842.842,0,0,0,.828-.842V5.336a.843.843,0,0,0-.843-.843H20.13L18.284.968A1.922,1.922,0,0,0,16.621,0h-3.8a1.913,1.913,0,0,0-1.865,2.34l1.965,11.243c-1.453.074-2.867.2-4.123.363L6.548,9.913,6.53,9.882a1.923,1.923,0,0,0-1.641-.929h-2.8A1.913,1.913,0,0,0,.211,11.241l.942,4.708A2.55,2.55,0,0,0,0,17.975,2.55,2.55,0,0,0,1.152,20L.211,24.709A1.913,1.913,0,0,0,2.087,27h2.8a1.923,1.923,0,0,0,1.64-.929L8.794,22c1.256.164,2.67.289,4.123.363L10.952,33.61a1.913,1.913,0,0,0,1.865,2.34h3.8a1.926,1.926,0,0,0,1.647-.939l1.862-3.555h2.339a.843.843,0,0,0,.843-.843V27.805a.842.842,0,0,0-.828-.842l2.366-4.517h7.625c3.4,0,7.969-1.149,7.969-4.471C40.444,14.633,35.826,13.5,32.475,13.5Zm0,6.7H23.456L16.42,33.7h-3.2l2.358-13.491a54.078,54.078,0,0,1-7.989-.657l-2.893,5.2h-2.2l1.368-6.776L2.494,11.2h2.2l2.893,5.2a54.069,54.069,0,0,1,7.989-.657L13.216,2.247h3.2l7.036,13.5h9.019c2.283,0,5.723.751,5.723,2.224C38.2,19.6,34.254,20.2,32.475,20.2Z" transform="translate(0 20.222) rotate(-30)" fill="#ceb07c"/>
</svg>
